<mxfile host="app.diagrams.net" modified="2023-06-05T14:59:34.748Z" agent="Mozilla/5.0 (X11; Linux x86_64; rv:109.0) Gecko/20100101 Firefox/113.0" etag="CL9WIreMFmtxhxDaCxs9" version="21.3.0" type="device">
  <diagram id="eDTlZYB63iw13qqHwxX-" name="Page-1">
    <mxGraphModel dx="398" dy="213" grid="1" gridSize="10" guides="1" tooltips="1" connect="1" arrows="1" fold="1" page="1" pageScale="1" pageWidth="850" pageHeight="1100" math="0" shadow="0">
      <root>
        <mxCell id="0" />
        <mxCell id="1" parent="0" />
        <mxCell id="_4l3IvHe-3uS5yegyjGe-203" value="odoo-dev/odoo" style="rounded=0;whiteSpace=wrap;html=1;fontSize=11;verticalAlign=bottom;fontStyle=1" parent="1" vertex="1">
          <mxGeometry x="70" y="550" width="370" height="60" as="geometry" />
        </mxCell>
        <mxCell id="_4l3IvHe-3uS5yegyjGe-202" value="odoo/odoo" style="rounded=0;whiteSpace=wrap;html=1;fontSize=11;verticalAlign=top;fontStyle=1" parent="1" vertex="1">
          <mxGeometry x="70" y="360" width="370" height="190" as="geometry" />
        </mxCell>
        <mxCell id="d4MCrwgoJ-HxTQabZ7jv-22" style="rounded=0;orthogonalLoop=1;jettySize=auto;html=1;endArrow=classic;endFill=1;" parent="1" source="_4l3IvHe-3uS5yegyjGe-63" target="UUBjyu-xDhq7s3pnQ-3j-14" edge="1">
          <mxGeometry relative="1" as="geometry">
            <mxPoint x="203" y="517" as="sourcePoint" />
            <mxPoint x="160" y="630" as="targetPoint" />
          </mxGeometry>
        </mxCell>
        <mxCell id="d4MCrwgoJ-HxTQabZ7jv-24" style="rounded=0;orthogonalLoop=1;jettySize=auto;html=1;endArrow=classic;endFill=1;" parent="1" source="_4l3IvHe-3uS5yegyjGe-67" target="_4l3IvHe-3uS5yegyjGe-170" edge="1">
          <mxGeometry relative="1" as="geometry">
            <mxPoint x="203" y="517" as="sourcePoint" />
            <mxPoint x="130" y="600" as="targetPoint" />
          </mxGeometry>
        </mxCell>
        <mxCell id="d4MCrwgoJ-HxTQabZ7jv-25" style="rounded=0;orthogonalLoop=1;jettySize=auto;html=1;endArrow=classic;endFill=1;" parent="1" source="_4l3IvHe-3uS5yegyjGe-69" target="_4l3IvHe-3uS5yegyjGe-168" edge="1">
          <mxGeometry relative="1" as="geometry">
            <mxPoint x="293" y="487" as="sourcePoint" />
            <mxPoint x="250" y="600" as="targetPoint" />
          </mxGeometry>
        </mxCell>
        <mxCell id="d4MCrwgoJ-HxTQabZ7jv-30" style="rounded=0;orthogonalLoop=1;jettySize=auto;html=1;endArrow=classic;endFill=1;" parent="1" source="_4l3IvHe-3uS5yegyjGe-40" target="_4l3IvHe-3uS5yegyjGe-162" edge="1">
          <mxGeometry relative="1" as="geometry">
            <mxPoint x="360" y="430" as="sourcePoint" />
            <mxPoint x="360" y="640" as="targetPoint" />
          </mxGeometry>
        </mxCell>
        <mxCell id="_4l3IvHe-3uS5yegyjGe-39" value="" style="edgeStyle=orthogonalEdgeStyle;rounded=0;orthogonalLoop=1;jettySize=auto;html=1;exitX=1;exitY=0.5;exitDx=0;exitDy=0;entryX=0;entryY=0.5;entryDx=0;entryDy=0;" parent="1" source="_4l3IvHe-3uS5yegyjGe-52" target="_4l3IvHe-3uS5yegyjGe-50" edge="1">
          <mxGeometry relative="1" as="geometry">
            <mxPoint x="320" y="410" as="targetPoint" />
          </mxGeometry>
        </mxCell>
        <mxCell id="_4l3IvHe-3uS5yegyjGe-40" value="F" style="ellipse;whiteSpace=wrap;html=1;aspect=fixed;fillColor=#fff2cc;strokeColor=#d6b656;" parent="1" vertex="1">
          <mxGeometry x="340" y="400" width="20" height="20" as="geometry" />
        </mxCell>
        <mxCell id="_4l3IvHe-3uS5yegyjGe-42" value="I" style="ellipse;whiteSpace=wrap;html=1;aspect=fixed;fillColor=#dae8fc;strokeColor=#6c8ebf;fontFamily=Verdana;" parent="1" vertex="1">
          <mxGeometry x="300" y="400" width="20" height="20" as="geometry" />
        </mxCell>
        <mxCell id="_4l3IvHe-3uS5yegyjGe-44" value="I" style="ellipse;whiteSpace=wrap;html=1;aspect=fixed;fillColor=#dae8fc;strokeColor=#6c8ebf;fontFamily=Verdana;" parent="1" vertex="1">
          <mxGeometry x="260" y="400" width="20" height="20" as="geometry" />
        </mxCell>
        <mxCell id="_4l3IvHe-3uS5yegyjGe-46" value="F" style="ellipse;whiteSpace=wrap;html=1;aspect=fixed;fillColor=#fff2cc;strokeColor=#d6b656;" parent="1" vertex="1">
          <mxGeometry x="220" y="400" width="20" height="20" as="geometry" />
        </mxCell>
        <mxCell id="_4l3IvHe-3uS5yegyjGe-48" value="I" style="ellipse;whiteSpace=wrap;html=1;aspect=fixed;fillColor=#dae8fc;strokeColor=#6c8ebf;fontFamily=Verdana;" parent="1" vertex="1">
          <mxGeometry x="180" y="400" width="20" height="20" as="geometry" />
        </mxCell>
        <mxCell id="_4l3IvHe-3uS5yegyjGe-50" value="I" style="ellipse;whiteSpace=wrap;html=1;aspect=fixed;fillColor=#dae8fc;strokeColor=#6c8ebf;fontFamily=Verdana;" parent="1" vertex="1">
          <mxGeometry x="140" y="400" width="20" height="20" as="geometry" />
        </mxCell>
        <mxCell id="_4l3IvHe-3uS5yegyjGe-51" value="" style="edgeStyle=orthogonalEdgeStyle;rounded=0;orthogonalLoop=1;jettySize=auto;html=1;endArrow=none;endFill=0;dashed=1;dashPattern=1 4;" parent="1" source="_4l3IvHe-3uS5yegyjGe-52" edge="1">
          <mxGeometry relative="1" as="geometry">
            <mxPoint x="80" y="410" as="targetPoint" />
          </mxGeometry>
        </mxCell>
        <mxCell id="_4l3IvHe-3uS5yegyjGe-52" value="I" style="ellipse;whiteSpace=wrap;html=1;aspect=fixed;fillColor=#dae8fc;strokeColor=#6c8ebf;fontFamily=Verdana;" parent="1" vertex="1">
          <mxGeometry x="100" y="400" width="20" height="20" as="geometry" />
        </mxCell>
        <mxCell id="_4l3IvHe-3uS5yegyjGe-59" style="rounded=0;orthogonalLoop=1;jettySize=auto;html=1;exitX=1;exitY=1;exitDx=0;exitDy=0;entryX=0;entryY=0;entryDx=0;entryDy=0;endArrow=classic;endFill=1;" parent="1" source="_4l3IvHe-3uS5yegyjGe-57" target="_4l3IvHe-3uS5yegyjGe-61" edge="1">
          <mxGeometry relative="1" as="geometry" />
        </mxCell>
        <mxCell id="_4l3IvHe-3uS5yegyjGe-57" value="R" style="ellipse;whiteSpace=wrap;html=1;aspect=fixed;fillColor=#d5e8d4;strokeColor=#82b366;" parent="1" vertex="1">
          <mxGeometry x="130" y="430" width="20" height="20" as="geometry" />
        </mxCell>
        <mxCell id="_4l3IvHe-3uS5yegyjGe-61" value="F" style="ellipse;whiteSpace=wrap;html=1;aspect=fixed;fillColor=#fff2cc;strokeColor=#d6b656;" parent="1" vertex="1">
          <mxGeometry x="160" y="460" width="20" height="20" as="geometry" />
        </mxCell>
        <mxCell id="_4l3IvHe-3uS5yegyjGe-63" value="F" style="ellipse;whiteSpace=wrap;html=1;aspect=fixed;fillColor=#fff2cc;strokeColor=#d6b656;" parent="1" vertex="1">
          <mxGeometry x="190" y="490" width="20" height="20" as="geometry" />
        </mxCell>
        <mxCell id="_4l3IvHe-3uS5yegyjGe-67" value="R" style="ellipse;whiteSpace=wrap;html=1;aspect=fixed;fillColor=#d5e8d4;strokeColor=#82b366;" parent="1" vertex="1">
          <mxGeometry x="250" y="430" width="20" height="20" as="geometry" />
        </mxCell>
        <mxCell id="_4l3IvHe-3uS5yegyjGe-69" value="F" style="ellipse;whiteSpace=wrap;html=1;aspect=fixed;fillColor=#fff2cc;strokeColor=#d6b656;" parent="1" vertex="1">
          <mxGeometry x="280" y="460" width="20" height="20" as="geometry" />
        </mxCell>
        <mxCell id="_4l3IvHe-3uS5yegyjGe-87" value="15.0" style="shape=callout;whiteSpace=wrap;html=1;perimeter=calloutPerimeter;fontSize=11;size=5;position=0.25;position2=0;" parent="1" vertex="1">
          <mxGeometry x="200" y="465" width="40" height="25" as="geometry" />
        </mxCell>
        <mxCell id="_4l3IvHe-3uS5yegyjGe-88" value="16.0" style="shape=callout;whiteSpace=wrap;html=1;perimeter=calloutPerimeter;fontSize=11;size=5;position=0.25;position2=0;" parent="1" vertex="1">
          <mxGeometry x="290" y="435" width="40" height="25" as="geometry" />
        </mxCell>
        <mxCell id="_4l3IvHe-3uS5yegyjGe-90" value="master" style="shape=callout;whiteSpace=wrap;html=1;perimeter=calloutPerimeter;fontSize=11;size=5;position=0.25;position2=0;" parent="1" vertex="1">
          <mxGeometry x="350" y="375" width="40" height="25" as="geometry" />
        </mxCell>
        <mxCell id="_4l3IvHe-3uS5yegyjGe-160" value="F" style="ellipse;whiteSpace=wrap;html=1;aspect=fixed;fillColor=#fff2cc;strokeColor=#d6b656;" parent="1" vertex="1">
          <mxGeometry x="150" y="570" width="20" height="20" as="geometry" />
        </mxCell>
        <mxCell id="_4l3IvHe-3uS5yegyjGe-162" value="F" style="ellipse;whiteSpace=wrap;html=1;aspect=fixed;fillColor=#fff2cc;strokeColor=#d6b656;" parent="1" vertex="1">
          <mxGeometry x="330" y="570" width="20" height="20" as="geometry" />
        </mxCell>
        <mxCell id="_4l3IvHe-3uS5yegyjGe-163" value="I" style="ellipse;whiteSpace=wrap;html=1;aspect=fixed;fillColor=#dae8fc;strokeColor=#6c8ebf;fontFamily=Verdana;" parent="1" vertex="1">
          <mxGeometry x="370" y="570" width="20" height="20" as="geometry" />
        </mxCell>
        <mxCell id="_4l3IvHe-3uS5yegyjGe-168" value="F" style="ellipse;whiteSpace=wrap;html=1;aspect=fixed;fillColor=#fff2cc;strokeColor=#d6b656;" parent="1" vertex="1">
          <mxGeometry x="270" y="570" width="20" height="20" as="geometry" />
        </mxCell>
        <mxCell id="_4l3IvHe-3uS5yegyjGe-170" value="F" style="ellipse;whiteSpace=wrap;html=1;aspect=fixed;fillColor=#fff2cc;strokeColor=#d6b656;" parent="1" vertex="1">
          <mxGeometry x="230" y="570" width="20" height="20" as="geometry" />
        </mxCell>
        <mxCell id="d4MCrwgoJ-HxTQabZ7jv-1" value="" style="edgeStyle=orthogonalEdgeStyle;rounded=0;orthogonalLoop=1;jettySize=auto;html=1;exitX=1;exitY=0.5;exitDx=0;exitDy=0;entryX=0;entryY=0.5;entryDx=0;entryDy=0;" parent="1" edge="1">
          <mxGeometry relative="1" as="geometry">
            <mxPoint x="180" y="410" as="targetPoint" />
            <mxPoint x="160" y="410" as="sourcePoint" />
          </mxGeometry>
        </mxCell>
        <mxCell id="d4MCrwgoJ-HxTQabZ7jv-2" value="" style="edgeStyle=orthogonalEdgeStyle;rounded=0;orthogonalLoop=1;jettySize=auto;html=1;exitX=1;exitY=0.5;exitDx=0;exitDy=0;entryX=0;entryY=0.5;entryDx=0;entryDy=0;" parent="1" edge="1">
          <mxGeometry relative="1" as="geometry">
            <mxPoint x="220" y="410" as="targetPoint" />
            <mxPoint x="200" y="410" as="sourcePoint" />
          </mxGeometry>
        </mxCell>
        <mxCell id="d4MCrwgoJ-HxTQabZ7jv-3" value="" style="edgeStyle=orthogonalEdgeStyle;rounded=0;orthogonalLoop=1;jettySize=auto;html=1;exitX=1;exitY=0.5;exitDx=0;exitDy=0;entryX=0;entryY=0.5;entryDx=0;entryDy=0;" parent="1" edge="1">
          <mxGeometry relative="1" as="geometry">
            <mxPoint x="260" y="410" as="targetPoint" />
            <mxPoint x="240" y="410" as="sourcePoint" />
          </mxGeometry>
        </mxCell>
        <mxCell id="d4MCrwgoJ-HxTQabZ7jv-4" value="" style="edgeStyle=orthogonalEdgeStyle;rounded=0;orthogonalLoop=1;jettySize=auto;html=1;exitX=1;exitY=0.5;exitDx=0;exitDy=0;entryX=0;entryY=0.5;entryDx=0;entryDy=0;" parent="1" edge="1">
          <mxGeometry relative="1" as="geometry">
            <mxPoint x="300" y="410" as="targetPoint" />
            <mxPoint x="280" y="410" as="sourcePoint" />
          </mxGeometry>
        </mxCell>
        <mxCell id="d4MCrwgoJ-HxTQabZ7jv-5" value="" style="edgeStyle=orthogonalEdgeStyle;rounded=0;orthogonalLoop=1;jettySize=auto;html=1;exitX=1;exitY=0.5;exitDx=0;exitDy=0;entryX=0;entryY=0.5;entryDx=0;entryDy=0;" parent="1" edge="1">
          <mxGeometry relative="1" as="geometry">
            <mxPoint x="340" y="410" as="targetPoint" />
            <mxPoint x="320" y="410" as="sourcePoint" />
          </mxGeometry>
        </mxCell>
        <mxCell id="d4MCrwgoJ-HxTQabZ7jv-6" style="rounded=0;orthogonalLoop=1;jettySize=auto;html=1;exitX=1;exitY=1;exitDx=0;exitDy=0;entryX=0;entryY=0;entryDx=0;entryDy=0;endArrow=classic;endFill=1;" parent="1" edge="1">
          <mxGeometry relative="1" as="geometry">
            <mxPoint x="177" y="477" as="sourcePoint" />
            <mxPoint x="193" y="493" as="targetPoint" />
          </mxGeometry>
        </mxCell>
        <mxCell id="d4MCrwgoJ-HxTQabZ7jv-7" style="rounded=0;orthogonalLoop=1;jettySize=auto;html=1;exitX=1;exitY=1;exitDx=0;exitDy=0;entryX=0;entryY=0;entryDx=0;entryDy=0;endArrow=classic;endFill=1;" parent="1" edge="1">
          <mxGeometry relative="1" as="geometry">
            <mxPoint x="117" y="417" as="sourcePoint" />
            <mxPoint x="133" y="433" as="targetPoint" />
          </mxGeometry>
        </mxCell>
        <mxCell id="d4MCrwgoJ-HxTQabZ7jv-8" style="rounded=0;orthogonalLoop=1;jettySize=auto;html=1;exitX=1;exitY=1;exitDx=0;exitDy=0;entryX=0;entryY=0;entryDx=0;entryDy=0;endArrow=classic;endFill=1;" parent="1" edge="1">
          <mxGeometry relative="1" as="geometry">
            <mxPoint x="237" y="417" as="sourcePoint" />
            <mxPoint x="253" y="433" as="targetPoint" />
          </mxGeometry>
        </mxCell>
        <mxCell id="d4MCrwgoJ-HxTQabZ7jv-9" style="rounded=0;orthogonalLoop=1;jettySize=auto;html=1;exitX=1;exitY=1;exitDx=0;exitDy=0;entryX=0;entryY=0;entryDx=0;entryDy=0;endArrow=classic;endFill=1;" parent="1" edge="1">
          <mxGeometry relative="1" as="geometry">
            <mxPoint x="267" y="447" as="sourcePoint" />
            <mxPoint x="283" y="463" as="targetPoint" />
          </mxGeometry>
        </mxCell>
        <mxCell id="d4MCrwgoJ-HxTQabZ7jv-10" style="rounded=0;orthogonalLoop=1;jettySize=auto;html=1;exitX=1;exitY=1;exitDx=0;exitDy=0;entryX=0;entryY=0;entryDx=0;entryDy=0;endArrow=block;endFill=0;" parent="1" edge="1">
          <mxGeometry relative="1" as="geometry">
            <mxPoint x="207" y="507" as="sourcePoint" />
            <mxPoint x="223" y="523" as="targetPoint" />
          </mxGeometry>
        </mxCell>
        <mxCell id="d4MCrwgoJ-HxTQabZ7jv-11" value="" style="ellipse;whiteSpace=wrap;html=1;aspect=fixed;fillColor=#f5f5f5;strokeColor=#666666;fontColor=#333333;dashed=1;" parent="1" vertex="1">
          <mxGeometry x="220" y="520" width="20" height="20" as="geometry" />
        </mxCell>
        <mxCell id="d4MCrwgoJ-HxTQabZ7jv-12" style="rounded=0;orthogonalLoop=1;jettySize=auto;html=1;exitX=1;exitY=1;exitDx=0;exitDy=0;entryX=0;entryY=0;entryDx=0;entryDy=0;endArrow=block;endFill=0;" parent="1" edge="1">
          <mxGeometry relative="1" as="geometry">
            <mxPoint x="297" y="477" as="sourcePoint" />
            <mxPoint x="313" y="493" as="targetPoint" />
          </mxGeometry>
        </mxCell>
        <mxCell id="d4MCrwgoJ-HxTQabZ7jv-13" value="" style="ellipse;whiteSpace=wrap;html=1;aspect=fixed;fillColor=#f5f5f5;strokeColor=#666666;fontColor=#333333;dashed=1;" parent="1" vertex="1">
          <mxGeometry x="310" y="490" width="20" height="20" as="geometry" />
        </mxCell>
        <mxCell id="d4MCrwgoJ-HxTQabZ7jv-14" style="rounded=0;orthogonalLoop=1;jettySize=auto;html=1;exitX=1;exitY=0.5;exitDx=0;exitDy=0;entryX=0;entryY=0.5;entryDx=0;entryDy=0;endArrow=block;endFill=0;" parent="1" source="_4l3IvHe-3uS5yegyjGe-40" target="d4MCrwgoJ-HxTQabZ7jv-15" edge="1">
          <mxGeometry relative="1" as="geometry">
            <mxPoint x="367" y="407" as="sourcePoint" />
            <mxPoint x="383" y="423" as="targetPoint" />
          </mxGeometry>
        </mxCell>
        <mxCell id="d4MCrwgoJ-HxTQabZ7jv-15" value="" style="ellipse;whiteSpace=wrap;html=1;aspect=fixed;fillColor=#f5f5f5;strokeColor=#666666;fontColor=#333333;dashed=1;" parent="1" vertex="1">
          <mxGeometry x="380" y="400" width="20" height="20" as="geometry" />
        </mxCell>
        <mxCell id="_4l3IvHe-3uS5yegyjGe-193" value="" style="shape=callout;whiteSpace=wrap;html=1;perimeter=calloutPerimeter;fontSize=11;size=10;position=0;position2=0.5;base=10;" parent="1" vertex="1">
          <mxGeometry x="260" y="560" width="20" height="20" as="geometry" />
        </mxCell>
        <mxCell id="_4l3IvHe-3uS5yegyjGe-194" value="" style="shape=callout;whiteSpace=wrap;html=1;perimeter=calloutPerimeter;fontSize=11;size=10;position=0;position2=0.5;base=10;" parent="1" vertex="1">
          <mxGeometry x="220" y="560" width="20" height="20" as="geometry" />
        </mxCell>
        <mxCell id="_4l3IvHe-3uS5yegyjGe-199" value="" style="shape=callout;whiteSpace=wrap;html=1;perimeter=calloutPerimeter;fontSize=11;size=10;position=0;position2=0.5;base=10;" parent="1" vertex="1">
          <mxGeometry x="360" y="560" width="20" height="20" as="geometry" />
        </mxCell>
        <mxCell id="_4l3IvHe-3uS5yegyjGe-179" style="edgeStyle=none;rounded=0;orthogonalLoop=1;jettySize=auto;html=1;fontSize=11;startArrow=none;startFill=0;endArrow=classic;endFill=1;dashed=1;" parent="1" source="_4l3IvHe-3uS5yegyjGe-160" target="d4MCrwgoJ-HxTQabZ7jv-11" edge="1">
          <mxGeometry relative="1" as="geometry">
            <mxPoint x="230" y="540" as="targetPoint" />
          </mxGeometry>
        </mxCell>
        <mxCell id="_4l3IvHe-3uS5yegyjGe-188" style="edgeStyle=none;rounded=0;orthogonalLoop=1;jettySize=auto;html=1;fontSize=11;startArrow=none;startFill=0;endArrow=classic;endFill=1;dashed=1;" parent="1" source="_4l3IvHe-3uS5yegyjGe-163" edge="1" target="d4MCrwgoJ-HxTQabZ7jv-15">
          <mxGeometry relative="1" as="geometry">
            <mxPoint x="390" y="420" as="targetPoint" />
          </mxGeometry>
        </mxCell>
        <mxCell id="_4l3IvHe-3uS5yegyjGe-182" style="edgeStyle=none;rounded=0;orthogonalLoop=1;jettySize=auto;html=1;fontSize=11;startArrow=none;startFill=0;endArrow=classic;endFill=1;dashed=1;" parent="1" source="_4l3IvHe-3uS5yegyjGe-168" target="d4MCrwgoJ-HxTQabZ7jv-13" edge="1">
          <mxGeometry relative="1" as="geometry">
            <mxPoint x="313" y="507" as="targetPoint" />
          </mxGeometry>
        </mxCell>
        <mxCell id="UUBjyu-xDhq7s3pnQ-3j-1" value="Branch" style="shape=callout;whiteSpace=wrap;html=1;perimeter=calloutPerimeter;fontSize=12;size=10;position=0;position2=0.5;base=10;labelPosition=right;verticalLabelPosition=middle;align=left;verticalAlign=middle;spacing=4;" vertex="1" parent="1">
          <mxGeometry x="450" y="490" width="20" height="20" as="geometry" />
        </mxCell>
        <mxCell id="UUBjyu-xDhq7s3pnQ-3j-2" value="[FIX]" style="ellipse;whiteSpace=wrap;html=1;aspect=fixed;fillColor=#fff2cc;strokeColor=#d6b656;labelPosition=right;verticalLabelPosition=middle;align=left;verticalAlign=middle;spacing=4;" vertex="1" parent="1">
          <mxGeometry x="450" y="400" width="20" height="20" as="geometry" />
        </mxCell>
        <mxCell id="UUBjyu-xDhq7s3pnQ-3j-3" value="[IMP]" style="ellipse;whiteSpace=wrap;html=1;aspect=fixed;fillColor=#dae8fc;strokeColor=#6c8ebf;fontFamily=Helvetica;labelPosition=right;verticalLabelPosition=middle;align=left;verticalAlign=middle;spacing=4;" vertex="1" parent="1">
          <mxGeometry x="450" y="430" width="20" height="20" as="geometry" />
        </mxCell>
        <mxCell id="UUBjyu-xDhq7s3pnQ-3j-4" value="[REL]" style="ellipse;whiteSpace=wrap;html=1;aspect=fixed;fillColor=#d5e8d4;strokeColor=#82b366;labelPosition=right;verticalLabelPosition=middle;align=left;verticalAlign=middle;spacing=4;" vertex="1" parent="1">
          <mxGeometry x="450" y="460" width="20" height="20" as="geometry" />
        </mxCell>
        <mxCell id="UUBjyu-xDhq7s3pnQ-3j-5" value="Next commit" style="rounded=0;orthogonalLoop=1;jettySize=auto;html=1;endArrow=classic;endFill=1;fontSize=12;labelPosition=right;verticalLabelPosition=middle;align=left;verticalAlign=middle;spacing=14;" edge="1" parent="1">
          <mxGeometry relative="1" as="geometry">
            <mxPoint x="450" y="520" as="sourcePoint" />
            <mxPoint x="470" y="540" as="targetPoint" />
          </mxGeometry>
        </mxCell>
        <mxCell id="UUBjyu-xDhq7s3pnQ-3j-8" value="Commit" style="ellipse;whiteSpace=wrap;html=1;aspect=fixed;labelPosition=right;verticalLabelPosition=middle;align=left;verticalAlign=middle;spacing=4;" vertex="1" parent="1">
          <mxGeometry x="450" y="370" width="20" height="20" as="geometry" />
        </mxCell>
        <mxCell id="UUBjyu-xDhq7s3pnQ-3j-9" value="Repository" style="whiteSpace=wrap;html=1;aspect=fixed;spacing=4;labelPosition=right;verticalLabelPosition=middle;align=left;verticalAlign=middle;" vertex="1" parent="1">
          <mxGeometry x="450" y="580" width="20" height="20" as="geometry" />
        </mxCell>
        <mxCell id="UUBjyu-xDhq7s3pnQ-3j-13" value="Pull-Request" style="group;spacing=4;labelPosition=right;verticalLabelPosition=middle;align=left;verticalAlign=middle;" vertex="1" connectable="0" parent="1">
          <mxGeometry x="450" y="550" width="20" height="20" as="geometry" />
        </mxCell>
        <mxCell id="UUBjyu-xDhq7s3pnQ-3j-12" value="" style="ellipse;whiteSpace=wrap;html=1;aspect=fixed;fillColor=#f5f5f5;strokeColor=#666666;fontColor=#333333;dashed=1;" vertex="1" parent="UUBjyu-xDhq7s3pnQ-3j-13">
          <mxGeometry x="10" y="10" width="10" height="10" as="geometry" />
        </mxCell>
        <mxCell id="UUBjyu-xDhq7s3pnQ-3j-6" value="" style="edgeStyle=none;rounded=0;orthogonalLoop=1;jettySize=auto;html=1;fontSize=12;startArrow=none;startFill=0;endArrow=classic;endFill=1;dashed=1;spacing=14;labelPosition=right;verticalLabelPosition=middle;align=left;verticalAlign=middle;endSize=4;" edge="1" parent="UUBjyu-xDhq7s3pnQ-3j-13" target="UUBjyu-xDhq7s3pnQ-3j-12">
          <mxGeometry relative="1" as="geometry">
            <mxPoint x="10" y="10" as="targetPoint" />
            <mxPoint as="sourcePoint" />
          </mxGeometry>
        </mxCell>
        <mxCell id="UUBjyu-xDhq7s3pnQ-3j-14" value="F" style="ellipse;whiteSpace=wrap;html=1;aspect=fixed;fillColor=#fff2cc;strokeColor=#d6b656;" vertex="1" parent="1">
          <mxGeometry x="100" y="570" width="20" height="20" as="geometry" />
        </mxCell>
        <mxCell id="UUBjyu-xDhq7s3pnQ-3j-16" style="rounded=0;orthogonalLoop=1;jettySize=auto;html=1;endArrow=classic;endFill=1;" edge="1" parent="1" source="_4l3IvHe-3uS5yegyjGe-63" target="_4l3IvHe-3uS5yegyjGe-160">
          <mxGeometry relative="1" as="geometry">
            <mxPoint x="203" y="517" as="sourcePoint" />
            <mxPoint x="127" y="583" as="targetPoint" />
          </mxGeometry>
        </mxCell>
        <mxCell id="UUBjyu-xDhq7s3pnQ-3j-17" style="edgeStyle=none;rounded=0;orthogonalLoop=1;jettySize=auto;html=1;fontSize=11;startArrow=none;startFill=0;endArrow=classic;endFill=1;dashed=1;" edge="1" parent="1" source="UUBjyu-xDhq7s3pnQ-3j-14" target="d4MCrwgoJ-HxTQabZ7jv-11">
          <mxGeometry relative="1" as="geometry">
            <mxPoint x="232" y="546" as="targetPoint" />
            <mxPoint x="178" y="584" as="sourcePoint" />
          </mxGeometry>
        </mxCell>
        <mxCell id="_4l3IvHe-3uS5yegyjGe-192" value="" style="shape=callout;whiteSpace=wrap;html=1;perimeter=calloutPerimeter;fontSize=11;size=10;position=0;position2=0.5;base=10;" parent="1" vertex="1">
          <mxGeometry x="140" y="560" width="20" height="20" as="geometry" />
        </mxCell>
        <mxCell id="UUBjyu-xDhq7s3pnQ-3j-18" style="rounded=0;orthogonalLoop=1;jettySize=auto;html=1;endArrow=classic;endFill=1;" edge="1" parent="1" source="_4l3IvHe-3uS5yegyjGe-162" target="_4l3IvHe-3uS5yegyjGe-163">
          <mxGeometry relative="1" as="geometry">
            <mxPoint x="299" y="490" as="sourcePoint" />
            <mxPoint x="291" y="580" as="targetPoint" />
          </mxGeometry>
        </mxCell>
        <mxCell id="UUBjyu-xDhq7s3pnQ-3j-19" value="" style="shape=callout;whiteSpace=wrap;html=1;perimeter=calloutPerimeter;fontSize=11;size=10;position=0;position2=0.5;base=10;" vertex="1" parent="1">
          <mxGeometry x="90" y="560" width="20" height="20" as="geometry" />
        </mxCell>
      </root>
    </mxGraphModel>
  </diagram>
</mxfile>
